<svg width="100" height="50" viewBox="0 0 100 50" fill="none" xmlns="http://www.w3.org/2000/svg">
<path d="M50.5598 22.3416C51.4393 23.4076 51.7608 24.6594 51.5238 26.1142H44.7924C45.114 27.1798 46.0105 27.8733 47.1776 27.8733C48.1752 27.8733 48.8858 27.4675 49.3424 26.6557L51.2198 27.5015C50.4248 28.9223 48.9365 29.8356 47.1099 29.8356C45.7738 29.8356 44.6741 29.396 43.778 28.5332C42.8815 27.6705 42.4419 26.588 42.4419 25.3022C42.4419 24.0168 42.8814 22.9341 43.761 22.0714C44.6403 21.2086 45.7232 20.769 47.0255 20.769C48.4963 20.7689 49.6635 21.293 50.5598 22.3416ZM44.8262 24.3717H49.2405C48.9189 23.3736 48.0906 22.7311 47.0251 22.7311C46.0103 22.7311 45.1474 23.3737 44.8262 24.3717Z" fill="#8F9194"/>
<path d="M60.8083 22.0708C61.6038 22.9339 62.0093 24.0164 62.0093 25.3018C62.0093 26.5876 61.6038 27.6702 60.8083 28.5327C60.0138 29.3958 59.0158 29.8354 57.8153 29.8354C56.6988 29.8354 55.7683 29.4296 55.0413 28.6344V33.0495H52.7583V20.9377H55.0413V21.9694C55.7683 21.1746 56.6988 20.7684 57.8153 20.7684C59.0158 20.7684 60.0138 21.2083 60.8083 22.0708ZM57.3413 27.7548C58.0013 27.7548 58.5423 27.518 58.9823 27.0444C59.4213 26.5877 59.6418 25.9957 59.6418 25.302C59.6418 24.6085 59.4213 24.0165 58.9823 23.5598C58.5423 23.1029 58.0013 22.866 57.3413 22.866C56.6818 22.866 56.1403 23.1028 55.7008 23.5598C55.2613 24.0335 55.0413 24.6085 55.0413 25.302C55.0413 25.9957 55.2613 26.5878 55.7008 27.0444C56.1403 27.5179 56.6818 27.7548 57.3413 27.7548Z" fill="#8F9194"/>
<path d="M65.4429 26.334L69.6034 20.9377H71.8189V29.6664H69.5354V24.2703L65.3754 29.6664H63.1599V20.9377H65.4429V26.334Z" fill="#8F9194"/>
<path d="M75.928 29.6662H73.6445V20.9375H82V29.6662H79.7165V22.9506H75.928V29.6662Z" fill="#8F9194"/>
<path d="M22.2722 14L27.5333 20.4327L24.8959 23.6535L17 14H22.2722Z" fill="#8F9194"/>
<path d="M32.0173 18.166C32.0148 18.1723 30.1669 20.429 30.1669 20.429L24.9084 14H29.4559C29.9154 14 30.35 14.2067 30.6414 14.5617L32.0098 16.2356C32.4643 16.7898 32.4805 17.5969 32.0173 18.166Z" fill="#8F9194"/>
<path d="M38.6059 26.239L31.0723 35.4465C30.781 35.8015 30.3464 36.007 29.8881 36.007H25.3394L36.763 22.0468L38.6059 24.2998C39.0678 24.864 39.0678 25.676 38.6059 26.239Z" fill="#8F9194"/>
<path d="M34.6479 21.4004L22.6952 36.0069H17.4192L30.1664 20.4289C30.1664 20.4289 32.0143 18.1722 32.0168 18.1659C32.48 17.5968 32.4638 16.7897 32.0093 16.2355L34.6479 19.4612C35.1099 20.0254 35.1099 20.8362 34.6479 21.4004Z" fill="#8F9194"/>
</svg>
